<svg width="441" height="106" xmlns="http://www.w3.org/2000/svg">

 <g>
  <title>background</title>
  <rect fill="none" id="canvas_background" height="602" width="802" y="-1" x="-1"/>
 </g>
 <g>
  <title>Layer 1</title>
  <g id="svg_1" text-anchor="none" font-size="none" font-weight="none" font-family="none" stroke-dashoffset="0" stroke-miterlimit="10" fill-rule="none" fill="none">
   <g id="svg_2">
    <g id="svg_3" fill-rule="nonzero" fill="#000000">
     <path id="svg_4" d="m148.50011,80.97414c-0.62908,1.04846 -1.71249,0.1398 -2.7959,0c-1.18826,-0.24464 -2.69105,0.0699 -3.45993,1.04846c-0.73392,0.97857 -0.55918,2.30662 0.38444,3.04054c0.97857,0.69898 2.20177,0.83877 3.28518,1.2931c1.71249,0.73392 3.07549,2.20177 3.35508,4.12395c0.31454,2.09693 -0.76887,4.2987 -2.69105,5.34716c-2.58621,1.39795 -5.45201,0.48928 -6.57037,-0.27959c-0.55918,-0.38444 -0.73392,-1.11836 -0.38444,-1.67754c0.45433,-0.69898 1.22321,-0.59413 1.85228,-0.27959c1.15331,0.62908 2.726,0.83877 3.91426,0.17474c1.11836,-0.59413 1.78239,-1.78239 1.57269,-3.04054c-0.27959,-1.85228 -2.02703,-2.34157 -3.56477,-2.8658c-1.53775,-0.55918 -2.9357,-1.32805 -3.56477,-2.90075c-0.48928,-1.2931 -0.27959,-2.726 0.45433,-3.87931c1.60764,-2.41146 5.17242,-2.97065 7.61883,-1.60764c0.59413,0.31454 0.94362,0.90867 0.59413,1.5028l0.00001,0.00001z"/>
     <path id="svg_5" d="m199.65699,87.50956c0,-4.92778 -3.98416,-8.94688 -8.94688,-8.94688c-2.726,0 -5.17242,1.22321 -6.81501,3.14539l0,-1.85228c0,-0.59413 -0.48928,-1.08341 -1.08341,-1.08341c-0.59413,0 -1.04846,0.48928 -1.04846,1.08341l0,20.72462c0,0.69898 0.52423,1.22321 1.18826,1.22321c0.69898,0 1.22321,-0.52423 1.22321,-1.22321l0,-6.91986c1.64259,1.74744 3.94921,2.83085 6.53542,2.83085c4.96272,0 8.94688,-4.01911 8.94688,-8.98183l-0.00001,-0.00001zm-2.41146,0c0,3.59972 -2.9357,6.53542 -6.53542,6.53542c-3.59972,0 -6.53542,-2.9357 -6.53542,-6.53542c0,-3.59972 2.9357,-6.50047 6.53542,-6.50047c3.59972,0 6.53542,2.90075 6.53542,6.50047z"/>
     <path id="svg_6" d="m250.33391,78.84226c-0.59413,0 -1.08341,0.45433 -1.08341,1.04846l0,1.92218c-1.64259,-1.92218 -4.08901,-3.14539 -6.81501,-3.14539c-4.96272,0 -8.98183,4.01911 -8.98183,8.94688c0,4.96272 4.01911,8.98183 8.98183,8.98183c2.726,0 5.17242,-1.22321 6.81501,-3.14539l0,1.78239c0,0.59413 0.48928,1.08341 1.08341,1.08341c0.59413,0 1.04846,-0.48928 1.04846,-1.08341l0,-15.34251c0,-0.59413 -0.45433,-1.04846 -1.04846,-1.04846l0,0.00001zm-7.89842,15.30756c-3.59972,0 -6.53542,-2.90075 -6.53542,-6.53542c0,-3.59972 2.9357,-6.50047 6.53542,-6.50047c3.59972,0 6.53542,2.90075 6.53542,6.50047c0,3.63467 -2.9357,6.53542 -6.53542,6.53542z"/>
    </g>
    <g id="svg_7" fill-rule="nonzero" fill="#000000">
     <path id="svg_8" d="m160.83648,39.9963l0.25879,0.08626c6.29732,2.15662 10.00671,5.17588 10.00671,8.45394c0,1.55277 -1.63903,6.1248 -6.64238,6.1248c-2.67421,0 -9.83418,0 -16.21777,-6.81491l-8.799,8.28141c4.14071,4.3995 8.97153,7.41877 14.40621,9.14406c4.31324,1.29397 7.93635,1.4665 10.61056,1.4665c5.43468,0 10.35177,-2.24288 13.88862,-6.21106c3.01927,-3.36432 4.83082,-7.76383 4.83082,-11.9908c0,-4.31324 -1.63903,-8.36768 -4.74456,-11.81827c-3.10553,-3.36432 -7.5913,-6.03853 -13.37103,-8.02262c-0.51759,-0.17253 -1.03518,-0.34506 -1.72529,-0.51759c-5.52094,-1.38024 -7.67756,-3.10553 -7.76383,-6.21106c-0.08626,-1.98409 0.51759,-2.933 1.03518,-3.45059c1.55277,-1.63903 4.57203,-2.24288 5.34841,-2.24288c5.26215,0 7.76383,1.63903 11.64574,4.14071l2.15662,1.38024l6.29732,-10.2655l-1.98409,-1.29397c-4.3995,-2.84674 -9.31659,-6.03853 -18.11559,-6.03853c-3.10553,0 -9.57538,1.29397 -14.06115,5.95227c-3.10553,3.27806 -4.6583,7.50503 -4.3995,12.33586c0.25879,5.77974 2.933,10.43803 7.76383,13.62983c3.45059,2.32915 7.15997,3.27806 9.14406,3.79565l0.43132,0.08625z"/>
     <path id="svg_9" d="m192.66816,65.44439l0,-60.38531l12.07706,0l0,60.38531l-12.07706,0z"/>
     <path id="svg_10" d="m262.025,65.53065l-33.9883,-35.28227l0,35.28227l-12.07706,0l0,-60.47157l3.79565,0l33.38445,33.81577l0,-33.81577l12.07706,0l0,60.47157l-3.1918,0z"/>
     <path id="svg_11" d="m309.81565,28.26429l0,12.07706l13.62983,0c-2.24288,8.10888 -9.74791,14.40621 -18.54692,14.40621c-5.08962,0 -9.92044,-2.07035 -13.54356,-5.77974c-3.53685,-3.62312 -5.52094,-8.54021 -5.43468,-13.62983c0,-5.08962 2.07035,-9.92044 5.69347,-13.4573c3.62312,-3.62312 8.45394,-5.60721 13.54356,-5.60721l0.17253,0c3.88191,0.08626 7.50503,1.20771 10.61056,3.36432l8.71274,-8.54021c-5.26215,-4.22697 -11.90453,-6.81491 -19.23703,-6.90118l-0.25879,0c-17.16668,0 -31.14156,13.80236 -31.31409,30.96904c-0.17253,17.33921 13.62983,31.22783 30.96904,31.40036l0.08626,0c16.21777,0 30.02012,-13.1985 30.02012,-32.17674l0,-6.1248l-25.10304,0.00002z"/>
     <path id="svg_12" d="m358.21016,5.05908l-12.07706,0l0,60.38531l34.59215,0l0,-11.9908l-22.51509,0l0,-48.39451z"/>
     <path id="svg_13" d="m430.5,5.05908l-40.28563,0l0,12.07706l40.28563,0l0,-12.07706zm-40.28563,35.36854l33.38445,0l0,-12.07706l-33.38445,0l0,12.07706zm0,25.10303l40.02683,0l0,-12.07706l-40.02683,0l0,12.07706z"/>
    </g>
    <g id="svg_14" fill-rule="evenodd">
     <g id="svg_15">
      <path id="svg_16" fill="#000000" d="m86.36473,55.07176c-0.353,-6.84198 -1.342,-13.58995 -2.90999,-20.26493c-0.379,-1.61399 -0.197,-3.35299 -0.473,-5.00298c-0.477,-2.85299 -0.992,-5.71198 -1.70999,-8.51197c-0.742,-2.89099 -4.27398,-4.00599 -6.75098,-2.27999c-0.224,0.155 -0.431,0.333 -0.719,0.558c-0.954,-1.82899 -2.47999,-2.80499 -4.48798,-3.00499c-1.98199,-0.196 -3.66699,0.405 -4.93198,2.02399c-1.99799,-3.63299 -7.38097,-4.24298 -10.18996,-0.854c-0.128,-0.33 -0.235,-0.591 -0.329,-0.856c-1.343,-3.76799 -2.90599,-7.43197 -4.89198,-10.91896c-0.928,-1.62999 -2.25899,-2.58899 -3.99719,-3.10299c-0.1632,-0.048 -1.3948,-0.277 -2.80849,-0.015c-1.48419,0.49 -2.49119,1.245 -3.43779,2.52399c-0.3688,0.497 -0.8393,2.80299 -0.5185,3.95099c0.1799,0.641 2.78719,6.60998 4.16749,9.98096c2.40389,5.87498 4.49648,11.85896 6.07448,18.01394c0.177,0.693 0.085,1.042 -0.594,1.42899c-2.47759,1.41299 -3.55709,4.33898 -2.74129,7.12297c0.8183,2.79399 3.17629,4.54898 6.08728,4.41598c0.712,-0.033 1.044,0.203 1.157,0.813c0.21,1.13 0.507,2.26599 0.537,3.40399c0.298,11.15096 -1.17,22.03292 -5.08298,32.52688c-1.73199,4.64098 -3.91869,9.06497 -6.39978,13.34795c-0.8438,1.45799 -0.6907,2.06599 0.7052,2.90799l0.5499,0c0.4694,-0.449 1.0695,-0.822 1.388,-1.361c2.63269,-4.44298 4.87368,-9.07697 6.68368,-13.91795c2.96099,-7.92297 4.58898,-16.13194 5.06298,-24.55291c0.03,-0.53 0.063,-1.062 0.096,-1.59299c0.256,-4.10699 0.514,-8.24197 -0.715,-12.34396c0.776,-0.21 1.56599,-0.414 2.34999,-0.639c0.471,-0.137 0.815,-0.083 1.223,0.281c1.72299,1.54399 4.27198,1.89399 6.10798,0.683c1.034,-0.681 1.82999,-1.71899 2.77699,-2.63999c1.146,1.243 2.74999,1.80099 4.62898,1.46099c1.90999,-0.346 3.02799,-1.67099 3.86999,-3.31399c2.26799,1.271 4.23898,0.804 6.14998,-1.141c0.336,3.57899 0.719,6.85098 0.937,10.13296c0.559,8.43997 0.141,16.83094 -1.43599,25.15591c-1.383,7.29597 -3.89699,14.21395 -6.89998,20.97392c-0.649,1.46099 -0.508,1.95799 0.77,2.81699l0.732,0c0.445,-0.548 1.031,-1.031 1.314,-1.65299c3.52599,-7.74997 6.23598,-15.75394 7.57197,-24.19391c1.174,-7.41897 1.46899,-14.87495 1.084,-22.36292l-0.00004,0.00003zm-44.71924,-44.91784c-0.3811,-0.769 -0.4337,-1.76999 -0.4136,-2.65599c0.0235,-1.006 0.9835,-1.77099 2.00499,-1.75299c1.2528,0.022 2.28499,0.449 2.97099,1.61499c2.89399,4.92598 4.84998,10.23996 6.37898,15.70994c1.181,4.22098 2.14199,8.50497 3.19599,12.76095c0.049,0.202 0.059,0.414 0.101,0.717c-1.377,0.342 -2.72799,0.677 -4.16399,1.034c-0.461,-1.65899 -0.876,-3.27199 -1.354,-4.86498c-2.32099,-7.74497 -5.12508,-15.30495 -8.72037,-22.56292l0.00001,0zm17.38334,25.50991c-0.881,-4.97498 -1.74699,-9.80096 -2.58099,-14.63395c-0.173,-1.014 0.306,-1.77899 1.231,-2.21699c1.65999,-0.786 3.60999,0.093 3.95899,1.87299c0.807,4.12499 1.54099,8.26397 2.32799,12.39396c0.104,0.543 0.003,0.834 -0.553,1.02c-1.44299,0.482 -2.86599,1.018 -4.38398,1.56399l-0.00001,0zm9.05796,-15.99894c1.182,-0.259 2.61499,0.275 2.79099,1.172c0.668,3.36699 1.263,6.74798 1.92299,10.31796c-1.74899,-0.419 -3.16199,-0.053 -4.56298,0.864c-0.347,-2.06899 -0.683,-4.00299 -0.991,-5.93998c-0.232,-1.47499 -0.45,-2.95199 -0.629,-4.43398c-0.125,-1.036 0.441,-1.75299 1.46899,-1.97999l0.00001,-0.00001zm12.17496,19.40293c-0.046,0.821 -0.066,1.64999 -0.181,2.46199c-0.149,1.029 -1.17,1.68999 -1.97999,1.339c-0.568,-0.246 -0.786,-0.673 -0.775,-1.309c0.026,-1.304 0.02,-2.60799 0.016,-3.65199c-0.001,-0.349 -0.003,-0.669 -0.003,-0.95c-0.08,-5.08198 -0.45,-9.50997 -1.50399,-13.86395c-0.215,-0.886 0.128,-1.54599 0.856,-1.74199c0.857,-0.23 1.47399,0.175 1.74099,1.148c1.48899,5.42598 2.14499,10.94296 1.82999,16.56794zm-8.55497,0.855c-6.30998,3.62999 -13.15195,5.75598 -20.22293,7.23797c-1.94599,0.407 -3.54299,-1.091 -3.53099,-3.17899c0.009,-1.55599 0.989,-2.70499 2.63299,-3.03799c5.71998,-1.156 11.30696,-2.74999 16.65494,-5.11698c0.973,-0.431 1.94499,-0.872 2.88599,-1.37c0.783,-0.416 1.51799,-0.632 2.29099,-0.02c0.821,0.651 1.299,1.50099 1.172,2.54099c-0.153,1.251 -0.688,2.25699 -1.88299,2.94499l0,0.00001zm0.062,5.70797c-0.87,0.244 -1.66999,-0.169 -2.11499,-1.115c1.17,-0.62 2.33999,-1.241 3.52699,-1.87199c0.24,1.57799 -0.29,2.67099 -1.41199,2.98699l-0.00001,0z"/>
      <path id="svg_17" fill="#000000" d="m78.23776,8.14293c-6.03998,-2.55499 -12.36596,-3.83299 -18.97893,-3.83299c-2.49399,0 -4.94698,0.182 -7.35997,0.545l1.302,1.85599c1.98999,-0.256 4.00999,-0.384 6.05798,-0.384c6.33998,0 12.40496,1.225 18.19293,3.67299c5.59198,2.36499 10.54496,5.70498 14.85795,10.01796c4.31332,4.31332 7.65264,9.26597 10.01796,14.85795c2.44799,5.78798 3.67199,11.85296 3.67199,18.19293c0,6.34098 -1.224,12.40496 -3.67199,18.19393c-2.36499,5.59198 -5.70498,10.54496 -10.01796,14.85795c-2.35899,2.35899 -4.90998,4.42698 -7.65297,6.20398l-0.233,0.684l-0.344,0.978l-0.355,0.973l-0.144,0.385c3.69699,-2.12499 7.08197,-4.72498 10.15496,-7.79797c4.49898,-4.49898 7.98197,-9.66497 10.44996,-15.49794c2.55399,-6.04098 3.83199,-12.36696 3.83199,-18.97993c0,-6.61298 -1.278,-12.93895 -3.83199,-18.97893c-2.46799,-5.83398 -5.95131,-10.99996 -10.44996,-15.49794c-4.49798,-4.49898 -9.66397,-7.98197 -15.49794,-10.44896l-0.00001,-0.00002z"/>
      <path id="svg_18" fill="#000000" d="m35.43491,10.50992c-3.89139,2.17699 -7.44267,4.86998 -10.65386,8.08197c-4.49858,4.49798 -7.98157,9.66397 -10.44896,15.49794c-2.55469,6.03998 -3.83209,12.36596 -3.83209,18.97893c0,6.61298 1.2774,12.93895 3.83209,18.97993c2.46739,5.83298 5.95038,10.99896 10.44896,15.49794c4.27838,4.27798 9.16037,7.63797 14.64595,10.07896l0.9257,-1.79599c-5.30118,-2.34399 -10.01626,-5.57998 -14.14535,-9.70897c-4.31328,-4.31298 -7.65237,-9.26597 -10.01756,-14.85795c-2.44852,-5.78865 -3.67279,-11.85329 -3.67279,-18.19393c0,-6.33998 1.22426,-12.40429 3.67279,-18.19293c2.36519,-5.59198 5.70438,-10.54496 10.01756,-14.85795c3.01569,-3.01599 6.34408,-5.55598 9.98496,-7.61897l-0.1133,-0.273l-0.391,-0.949l-0.0328,-0.083l-0.2203,-0.58398z"/>
      <path id="svg_19" fill="#000000" d="m59.25883,101.82759c-3.75199,0 -7.41097,-0.411 -10.97796,-1.233l0.11,-0.201l0.491,-0.917l0.381,-0.73c3.25199,0.71 6.58398,1.064 9.99596,1.064c4.61932,0 9.09263,-0.65 13.41995,-1.94999l-0.714,1.78099l-0.128,0.39l-0.044,0.176c-4.05699,1.08 -8.23497,1.61999 -12.53396,1.61999l0.00001,0.00001z"/>
     </g>
    </g>
   </g>
  </g>
 </g>
</svg>